<svg xmlns="http://www.w3.org/2000/svg" width="513" height="513" fill-rule="evenodd" clip-rule="evenodd" image-rendering="optimizeQuality" shape-rendering="geometricPrecision" text-rendering="geometricPrecision" version="1.0" viewBox="0 0 232215 232216"><path fill="#ff757c" d="M116108 0c64124,0 116107,51983 116107,116108 0,64125 -51983,116108 -116107,116108 -64125,0 -116108,-51983 -116108,-116108 0,-64124 51983,-116108 116108,-116108z"/><path fill="#807d7d" d="M37529 16430l97706 0c2882,0 5239,2358 5239,5239l0 129727c0,2882 -2358,5239 -5239,5239l-97706 0c-2882,0 -5239,-2358 -5239,-5239l0 -129727c0,-2882 2358,-5239 5239,-5239z"/><path fill="#20d0c2" d="M36626 28148l99511 0 0 116770 -99511 0 0 -116770z"/><path fill="#c8cacc" d="M86381 146632c2205,0 3994,1788 3994,3995 0,2205 -1788,3994 -3994,3994 -2206,0 -3994,-1788 -3994,-3994 0,-2206 1788,-3995 3994,-3995z"/><path fill="#dfe1e3" d="M218063 36470l-77529 0 0 103027 77529 0 0 -103027z"/><path fill="#fff" d="M215272 36470c-25342,0 -49548,-10806 -76028,0l0 96507 76028 0 0 -96507z"/><path fill="#dfe1e3" d="M60423 36470l75563 0 0 103027 -75563 0 0 -103027z"/><path fill="#fff" d="M63214 36470c25343,0 61966,-10618 76030,0l0 96507 -76030 0 0 -96507z"/><path fill="#ecf0f1" d="M137954 36470l2578 0 0 96507 -2578 0 0 -96507z"/><path fill="#fbb429" d="M69711 44619l29343 0 0 4031 -29343 0 0 -4031z"/><path fill="#dfe1e3" d="M69711 110112l58686 0 0 1907-58686 0 0-1907zm0-3845l0 0 58686 0 0 1907-58686 0 0-1907zm0-25150l0 0 58686 0 0 1906-58686 0 0-1906zm0 19228l0 0 25697 0 0 1907-25697 0 0-1907zm0-3846l0 0 58686 0 0 1906-58686 0 0-1906zm0-3846l0 0 58686 0 0 1907-58686 0 0-1907zm0-3845l0 0 58686 0 0 1906-58686 0 0-1906zm0-3847l0 0 58686 0 0 1907-58686 0 0-1907zm0 40533l0 0 20198 0 0 1907-20198 0 0-1907zm0-3846l0 0 58686 0 0 1907-58686 0 0-1907zm0-3846l0 0 58686 0 0 1907-58686 0 0-1907zm0-3845l0 0 58686 0 0 1906-58686 0 0-1906zM147915 83024l58686 0 0 1906-58686 0 0-1906zm0-3846l0 0 58686 0 0 1907-58686 0 0-1907zm0-25150l0 0 58686 0 0 1906-58686 0 0-1906zm0 19229l0 0 25695 0 0 1906-25695 0 0-1906zm0-3847l0 0 58686 0 0 1908-58686 0 0-1908zm0-3845l0 0 58686 0 0 1906-58686 0 0-1906zm0-3846l0 0 25695 0 0 1906-25695 0 0-1906zm0-3846l0 0 58686 0 0 1906-58686 0 0-1906zm0 40532l0 0 20197 0 0 1907-20197 0 0-1907zm0-3845l0 0 58686 0 0 1907-58686 0 0-1907zm0-3846l0 0 58686 0 0 1906-58686 0 0-1906zm0-3846l0 0 58686 0 0 1907-58686 0 0-1907z"/><path fill="#ff5b61" d="M153967 32257l7940 -682 0 41217 -3996 -2908 -3944 2908 0 -40534z"/><path fill="#c8cacc" d="M74050 21460l24661 0c810,0 1473,662 1473,1473 0,812 -662,1473 -1473,1473l-24661 0c-810,0 -1473,-662 -1473,-1473 0,-811 662,-1473 1473,-1473z"/><path fill="#fed198" d="M162987 117071l493 9389 2710 3424 83 -18747 -804 -18285 -2106 -19128c-445,-4039 6877,-5105 8041,-188l4019 16970 1044 15340 1369 49 -489 -7240c-191,-2830 2187,-5216 5021,-5290 2836,-74 5100,2192 5290,5021l2084 7924 -433 -5072c-241,-2830 2237,-5290 5023,-5290 4984,0 5982,6724 7634,10789l-90 -2087c-122,-2833 2890,-4565 5639,-3872 2961,746 5361,11346 5550,15735l-1785 28285c-279,4413 -1954,6545 -3908,8712l-661 35197c-3988,4970 -8373,9604 -13113,13855 -6105,1266 -12608,1463 -19538,4533l455 -53876c-5958,-2640 -20702,-17290 -20705,-17284l496 -23431c32,-1463 8830,-877 8679,4567z"/><path fill="#fff" d="M170147 73749l546 2694-5048 156-546-2694c-669-3294 4639-3419 5048-156zM156761 113457c-25 116 404 5486 404 5486l-2613-45 148-5687c0 0 1499-673 2061 246z"/><path fill="#0e7886" d="M171446 165393l39478 -669 647 17476c-10793,15561 -25290,28356 -42218,37110l2094 -53916z"/><path fill="#fff" d="M172537 160359l37248 -242 -37 4627 -37244 631 33 -5016z"/><path fill="#c8cacc" d="M204105 178116c1536,-13 2794,1190 2810,2687 15,1497 -1218,2723 -2755,2737 -1536,14 -2794,-1188 -2810,-2685 -16,-1497 1218,-2723 2755,-2739zm0 -7792l0 0c1536,-13 2794,1190 2810,2687 15,1497 -1218,2723 -2755,2737 -1536,14 -2794,-1188 -2810,-2685 -16,-1498 1218,-2723 2755,-2739z"/><path fill="#fed198" d="M46946 72322l-24506 8685 -8595 17899c0,0 -1675,4204 1151,12344l10842 31229 -918 14156 16441 0c0,0 2635,-37939 -2328,-46780 -4963,-8840 -5815,-20318 -5815,-20318 0,0 15299,-4422 16228,-10625 931,-6204 -2500,-6590 -2500,-6590z"/><path fill="#fff" d="M42750 76963l4769-1687c452-1053-661-2310-1038-2317l-4364 1628 632 2375zM23568 156635l33879 0 0 5363-33879 0 0-5363z"/><path fill="#0e7886" d="M21549 161222l37529 0 3136 57745c-16180,-8495 -30112,-20692 -40665,-35470l0 -22275z"/><path fill="#c8cacc" d="M43959 20452c1371,0 2481,1110 2481,2481 0,1371 -1110,2482 -2481,2482 -1370,0 -2482,-1111 -2482,-2482 0,-1370 1111,-2481 2482,-2481z"/><path fill="#807d7d" d="M43959 20783c1187,0 2150,963 2150,2150 0,1187 -963,2150 -2150,2150 -1188,0 -2150,-963 -2150,-2150 0,-1187 962,-2150 2150,-2150z"/><path fill="#c8cacc" d="M43959 22296c352 0 637 285 637 637 0 352-285 637-637 637-352 0-637-285-637-637 0-352 285-637 637-637zM53953 174463c1537-13 2795 1190 2811 2686 15 1497-1218 2723-2755 2737-1536 15-2794-1187-2810-2684-16-1497 1218-2723 2754-2739zm0-7792l0 0c1537-13 2795 1190 2811 2687 15 1497-1218 2723-2755 2737-1536 14-2794-1188-2810-2685-16-1498 1218-2723 2754-2739z"/><path fill="#ecf0f1" d="M69711 52328l58540 0 0 25223 -58540 0 0 -25223z"/></svg>